<svg width="24" height="24" viewBox="0 0 24 24" fill="none" xmlns="http://www.w3.org/2000/svg">
<g clip-path="url(#clip0_131_1714)">
<path d="M11.6555 13.9009C13.4481 13.9009 14.9013 12.4477 14.9013 10.6551C14.9013 8.86251 13.4481 7.40933 11.6555 7.40933C9.86291 7.40933 8.40973 8.86251 8.40973 10.6551C8.40973 12.4477 9.86291 13.9009 11.6555 13.9009Z" stroke="#064E00" stroke-width="2" stroke-linecap="round" stroke-linejoin="round"/>
<path d="M17.7758 16.7755L13.1852 21.3661C12.9845 21.5671 12.7461 21.7265 12.4837 21.8352C12.2213 21.944 11.94 22 11.6559 22C11.3719 22 11.0906 21.944 10.8282 21.8352C10.5658 21.7265 10.3274 21.5671 10.1266 21.3661L5.53495 16.7755C4.32452 15.565 3.50022 14.0228 3.16628 12.3438C2.83235 10.6648 3.00378 8.92455 3.6589 7.34301C4.31402 5.76147 5.4234 4.40971 6.84676 3.45866C8.27012 2.50762 9.94353 2 11.6554 2C13.3672 2 15.0407 2.50762 16.464 3.45866C17.8874 4.40971 18.9968 5.76147 19.6519 7.34301C20.307 8.92455 20.4784 10.6648 20.1445 12.3438C19.8106 14.0228 18.9863 15.565 17.7758 16.7755V16.7755Z" stroke="#064E00" stroke-width="2" stroke-linecap="round" stroke-linejoin="round"/>
</g>
<defs>
<clipPath id="clip0_131_1714">
<rect width="24" height="24" fill="white"/>
</clipPath>
</defs>
</svg>
