<svg width="30" height="30" viewBox="0 0 30 30" fill="none" xmlns="http://www.w3.org/2000/svg">
<g clip-path="url(#clip0_0_66)">
<path d="M12.6736 4.32917C13.2653 1.89028 16.7347 1.89028 17.3264 4.32917C17.4152 4.69555 17.5892 5.0358 17.8343 5.32222C18.0794 5.60864 18.3887 5.83313 18.737 5.97742C19.0853 6.12172 19.4627 6.18174 19.8386 6.1526C20.2145 6.12345 20.5781 6.00598 20.9 5.80972C23.0431 4.50417 25.4972 6.95694 24.1917 9.10139C23.9957 9.42313 23.8784 9.78658 23.8493 10.1622C23.8203 10.5378 23.8802 10.915 24.0243 11.263C24.1685 11.6111 24.3927 11.9202 24.6788 12.1653C24.9649 12.4105 25.3048 12.5846 25.6708 12.6736C28.1097 13.2653 28.1097 16.7347 25.6708 17.3264C25.3044 17.4152 24.9642 17.5892 24.6778 17.8343C24.3914 18.0794 24.1669 18.3887 24.0226 18.737C23.8783 19.0853 23.8183 19.4627 23.8474 19.8386C23.8765 20.2145 23.994 20.5781 24.1903 20.9C25.4958 23.0431 23.0431 25.4972 20.8986 24.1917C20.5769 23.9957 20.2134 23.8784 19.8378 23.8493C19.4622 23.8203 19.085 23.8802 18.737 24.0243C18.3889 24.1685 18.0798 24.3927 17.8346 24.6788C17.5895 24.9649 17.4154 25.3048 17.3264 25.6708C16.7347 28.1097 13.2653 28.1097 12.6736 25.6708C12.5848 25.3044 12.4108 24.9642 12.1657 24.6778C11.9206 24.3914 11.6113 24.1669 11.263 24.0226C10.9147 23.8783 10.5373 23.8183 10.1614 23.8474C9.78555 23.8765 9.42188 23.994 9.1 24.1903C6.95694 25.4958 4.50278 23.0431 5.80833 20.8986C6.00431 20.5769 6.1216 20.2134 6.15067 19.8378C6.17975 19.4622 6.11978 19.085 5.97566 18.737C5.83153 18.3889 5.60731 18.0798 5.32121 17.8346C5.03512 17.5895 4.69523 17.4154 4.32917 17.3264C1.89028 16.7347 1.89028 13.2653 4.32917 12.6736C4.69555 12.5848 5.0358 12.4108 5.32222 12.1657C5.60864 11.9206 5.83313 11.6113 5.97742 11.263C6.12172 10.9147 6.18174 10.5373 6.1526 10.1614C6.12345 9.78555 6.00598 9.42188 5.80972 9.1C4.50417 6.95694 6.95694 4.50278 9.10139 5.80833C10.4847 6.65278 12.2903 5.90556 12.6736 4.32917Z" stroke="#064E00" stroke-width="2" stroke-linecap="round" stroke-linejoin="round"/>
<path d="M15 19.1666C17.3012 19.1666 19.1666 17.3011 19.1666 14.9999C19.1666 12.6987 17.3012 10.8333 15 10.8333C12.6988 10.8333 10.8333 12.6987 10.8333 14.9999C10.8333 17.3011 12.6988 19.1666 15 19.1666Z" stroke="#064E00" stroke-width="2" stroke-linecap="round" stroke-linejoin="round"/>
</g>
<defs>
<clipPath id="clip0_0_66">
<rect width="30" height="30" fill="white"/>
</clipPath>
</defs>
</svg>
