<svg width="16" height="20" viewBox="0 0 16 20" fill="none" xmlns="http://www.w3.org/2000/svg">
<path d="M7.94208 20C7.67194 20.0013 7.40528 19.9391 7.16359 19.8184C6.9219 19.6977 6.71195 19.522 6.55065 19.3053L1.4625 12.5271C0.620616 11.3399 0.121416 9.94401 0.0194889 8.49216C-0.0824379 7.04032 0.216835 5.5884 0.884576 4.29519C1.55232 3.00199 2.56281 1.91731 3.80555 1.15977C5.04828 0.402234 6.4754 0.00101853 7.93082 1.93667e-06C9.38624 -0.00101466 10.8139 0.398207 12.0577 1.15401C13.3015 1.90981 14.3135 2.99308 14.9831 4.28534C15.6526 5.57761 15.9539 7.02911 15.854 8.4811C15.7541 9.93309 15.2569 11.3297 14.4166 12.518L9.33451 19.3033C9.17322 19.5204 8.96318 19.6965 8.72131 19.8175C8.47945 19.9385 8.21253 20.001 7.94208 20ZM7.93404 1.03174C6.2348 1.0264 4.59429 1.65315 3.33147 2.79012C2.06511 3.92086 1.25802 5.47722 1.06342 7.16374C0.868819 8.85027 1.30026 10.5495 2.27584 11.939L7.35394 18.7021C7.42203 18.7935 7.51062 18.8677 7.61259 18.9187C7.71456 18.9697 7.82707 18.996 7.94107 18.9956C8.05532 18.9958 8.16804 18.9693 8.2703 18.9184C8.37256 18.8674 8.46155 18.7934 8.53022 18.7021L13.6013 11.9319C14.2932 10.9528 14.7185 9.81059 14.8354 8.61741C14.9523 7.42423 14.7568 6.22116 14.2681 5.1264C13.7794 4.03164 13.0142 3.08285 12.0479 2.37323C11.0816 1.66362 9.94728 1.2176 8.75643 1.07899C8.4834 1.04781 8.20884 1.03203 7.93404 1.03174Z" fill="#F24E1E"/>
</svg>
