<svg width="45" height="45" viewBox="0 0 45 45" fill="none" xmlns="http://www.w3.org/2000/svg">
<path d="M4 27.8125V20.3125C4 19.8152 4.19754 19.3383 4.54917 18.9867C4.90081 18.635 5.37772 18.4375 5.875 18.4375H10.9319C11.3022 18.4376 11.6643 18.328 11.9725 18.1225L19.8344 12.88C20.117 12.6914 20.4456 12.5832 20.785 12.5669C21.1244 12.5505 21.4618 12.6268 21.7612 12.7873C22.0606 12.9479 22.3108 13.1869 22.485 13.4786C22.6591 13.7704 22.7507 14.104 22.75 14.4437V33.6812C22.7501 34.0207 22.6579 34.3538 22.4835 34.645C22.3091 34.9362 22.0589 35.1746 21.7596 35.3347C21.4603 35.4949 21.1231 35.5708 20.784 35.5543C20.445 35.5378 20.1168 35.4296 19.8344 35.2412L11.9725 30.0006C11.6641 29.7958 11.3021 29.6868 10.9319 29.6875H5.875C5.37772 29.6875 4.90081 29.4899 4.54917 29.1383C4.19754 28.7867 4 28.3098 4 27.8125V27.8125Z" stroke="black" stroke-width="1.5"/>
<path d="M31.1875 15.625C31.1875 15.625 34 18.4375 34 23.125C34 27.8125 31.1875 30.625 31.1875 30.625M36.8125 10C36.8125 10 41.5 14.6875 41.5 23.125C41.5 31.5625 36.8125 36.25 36.8125 36.25" stroke="black" stroke-width="1.5" stroke-linecap="round" stroke-linejoin="round"/>
</svg>
