<svg width="18" height="20" viewBox="0 0 18 20" fill="none" xmlns="http://www.w3.org/2000/svg">
<g clip-path="url(#clip0_131_1815)">
<path d="M8.02787 19.125V17.4583C6.50743 17.2639 5.20302 16.5453 4.11463 15.3025C3.02575 14.0592 2.39616 12.5694 2.22588 10.8333H0.766255V9.16667H2.22588C2.39616 7.43056 3.02575 5.94083 4.11463 4.6975C5.20302 3.45472 6.50743 2.73611 8.02787 2.54167V0.874999H9.48749V2.54167C11.0079 2.73611 12.3126 3.45472 13.4015 4.6975C14.4899 5.94083 15.1192 7.43056 15.2895 9.16667H16.7491V10.8333H15.2895C15.1192 12.5694 14.4899 14.0592 13.4015 15.3025C12.3126 16.5453 11.0079 17.2639 9.48749 17.4583V19.125H8.02787ZM8.75768 15.8333C10.1686 15.8333 11.3728 15.2639 12.3702 14.125C13.3676 12.9861 13.8664 11.6111 13.8664 10C13.8664 8.38889 13.3676 7.01389 12.3702 5.875C11.3728 4.73611 10.1686 4.16667 8.75768 4.16667C7.34671 4.16667 6.14252 4.73611 5.14512 5.875C4.14771 7.01389 3.64901 8.38889 3.64901 10C3.64901 11.6111 4.14771 12.9861 5.14512 14.125C6.14252 15.2639 7.34671 15.8333 8.75768 15.8333ZM8.75768 13.3333C7.95489 13.3333 7.26765 13.0069 6.69596 12.3542C6.12428 11.7014 5.83844 10.9167 5.83844 10C5.83844 9.08333 6.12428 8.29861 6.69596 7.64583C7.26765 6.99306 7.95489 6.66667 8.75768 6.66667C9.56047 6.66667 10.2477 6.99306 10.8194 7.64583C11.3911 8.29861 11.6769 9.08333 11.6769 10C11.6769 10.9167 11.3911 11.7014 10.8194 12.3542C10.2477 13.0069 9.56047 13.3333 8.75768 13.3333Z" fill="#064E00"/>
</g>
<defs>
<clipPath id="clip0_131_1815">
<rect width="17.0323" height="19.4483" fill="white" transform="scale(1.02837)"/>
</clipPath>
</defs>
</svg>
