<svg width="40" height="40" viewBox="0 0 40 40" fill="none" xmlns="http://www.w3.org/2000/svg">
<path d="M16.9531 2.19519V37.8049L28.0469 34.477V5.52324L16.9531 2.19519ZM29.4483 4.29519L29.4531 4.47699V6.79691H30.7031V4.29691L29.4483 4.29519ZM9.29688 4.29691V13.4586H10.7031V5.70316H15.5469V4.29691H9.29688ZM29.4531 8.20316V9.45316H30.7031V8.20316H29.4531ZM29.4531 10.8594V29.2969H30.7031V10.8594H29.4531ZM10.7031 15.4475V18.2032H3.20312V21.7969H10.7031V24.5526L15.2557 20L10.7031 15.4475ZM19.0625 18.125C19.5802 18.125 20 18.9645 20 20C20 21.0356 19.5802 21.875 19.0625 21.875C18.5448 21.875 18.125 21.0356 18.125 20C18.125 18.9645 18.5448 18.125 19.0625 18.125ZM10.7031 26.5414H9.29688V35H10.7031V26.5414ZM29.4531 30.7032V31.7969H30.7031V30.7032H29.4531ZM29.4531 33.2032V35H30.7031V33.2032H29.4531ZM2.5 36.7969V38.2032H15.5469V36.7969H2.5ZM25.2072 36.7969L20.5197 38.2032H37.5V36.7969H25.2072Z" fill="black"/>
</svg>
