<svg width="23" height="23" viewBox="0 0 23 23" fill="none" xmlns="http://www.w3.org/2000/svg">
<g clip-path="url(#clip0_0_93)">
<path d="M3.97987 11.5H1.88519L11.3113 1.91664L20.7373 11.5H18.6426" stroke="#064E00" stroke-width="2" stroke-linecap="round" stroke-linejoin="round"/>
<path d="M3.97973 11.5V18.9537C3.97973 19.5185 4.20042 20.0602 4.59325 20.4596C4.98608 20.8589 5.51887 21.0833 6.07442 21.0833H16.5478C17.1034 21.0833 17.6362 20.8589 18.029 20.4596C18.4218 20.0602 18.6425 19.5185 18.6425 18.9537V11.5" stroke="#064E00" stroke-width="2" stroke-linecap="round" stroke-linejoin="round"/>
<path d="M8.16925 21.0832V14.6943C8.16925 14.1295 8.38994 13.5878 8.78277 13.1885C9.1756 12.7891 9.70839 12.5647 10.2639 12.5647H12.3586C12.9142 12.5647 13.447 12.7891 13.8398 13.1885C14.2326 13.5878 14.4533 14.1295 14.4533 14.6943V21.0832" stroke="#064E00" stroke-width="2" stroke-linecap="round" stroke-linejoin="round"/>
</g>
<defs>
<clipPath id="clip0_0_93">
<rect width="22.6087" height="22.9859" fill="white" transform="scale(1.00061)"/>
</clipPath>
</defs>
</svg>
