<svg width="5" height="5" viewBox="0 0 5 5" fill="none" xmlns="http://www.w3.org/2000/svg">
<path d="M2.5 5C2.00555 5 1.5222 4.85338 1.11108 4.57868C0.699953 4.30397 0.379521 3.91353 0.190302 3.45671C0.00108321 2.9999 -0.0484251 2.49723 0.0480379 2.01228C0.144501 1.52732 0.382603 1.08187 0.732234 0.732234C1.08187 0.382603 1.52732 0.144501 2.01228 0.0480379C2.49723 -0.0484251 2.9999 0.00108321 3.45671 0.190302C3.91353 0.379521 4.30397 0.699953 4.57868 1.11108C4.85338 1.5222 5 2.00555 5 2.5C5 3.16304 4.73661 3.79893 4.26777 4.26777C3.79893 4.73661 3.16304 5 2.5 5ZM2.5 1C2.20333 1 1.91332 1.08797 1.66665 1.2528C1.41997 1.41762 1.22771 1.65189 1.11418 1.92598C1.00065 2.20007 0.970945 2.50167 1.02882 2.79264C1.0867 3.08361 1.22956 3.35088 1.43934 3.56066C1.64912 3.77044 1.91639 3.9133 2.20737 3.97118C2.49834 4.02906 2.79994 3.99935 3.07403 3.88582C3.34812 3.77229 3.58238 3.58003 3.74721 3.33336C3.91203 3.08668 4 2.79667 4 2.5C4 2.10218 3.84197 1.72065 3.56066 1.43934C3.27936 1.15804 2.89783 1 2.5 1Z" fill="#F24E1E"/>
</svg>
