<svg width="17" height="24" viewBox="0 0 17 24" fill="none" xmlns="http://www.w3.org/2000/svg">
<path d="M16.755 8.39999C16.755 7.29689 16.5383 6.20459 16.1173 5.18545C15.6963 4.16632 15.0792 3.24031 14.3013 2.4603C13.5234 1.68029 12.5998 1.06155 11.5834 0.639411C10.567 0.217272 9.47765 0 8.3775 0C7.27735 0 6.18798 0.217272 5.17157 0.639411C4.15517 1.06155 3.23164 1.68029 2.45371 2.4603C1.67579 3.24031 1.05871 4.16632 0.637699 5.18545C0.21669 6.20459 -1.63935e-08 7.29689 0 8.39999C0 10.0644 0.489486 11.6124 1.32245 12.918H1.31287L8.3775 24L15.4421 12.918H15.4338C16.2965 11.5699 16.7551 10.0018 16.755 8.39999ZM8.3775 12C7.42528 12 6.51206 11.6207 5.83874 10.9456C5.16541 10.2704 4.78714 9.35477 4.78714 8.39999C4.78714 7.44521 5.16541 6.52954 5.83874 5.85441C6.51206 5.17928 7.42528 4.8 8.3775 4.8C9.32972 4.8 10.2429 5.17928 10.9163 5.85441C11.5896 6.52954 11.9679 7.44521 11.9679 8.39999C11.9679 9.35477 11.5896 10.2704 10.9163 10.9456C10.2429 11.6207 9.32972 12 8.3775 12Z" fill="#F24E1E"/>
</svg>
