<svg width="16" height="18" viewBox="0 0 16 18" fill="none" xmlns="http://www.w3.org/2000/svg">
<path d="M14.1017 0H1.76271C0.784407 0 0 0.89 0 2V16C0 16.5304 0.185714 17.0391 0.516286 17.4142C0.846859 17.7893 1.29521 18 1.76271 18H14.1017C14.5692 18 15.0176 17.7893 15.3481 17.4142C15.6787 17.0391 15.8644 16.5304 15.8644 16V2C15.8644 1.46957 15.6787 0.960859 15.3481 0.585786C15.0176 0.210714 14.5692 0 14.1017 0ZM14.1017 2V16H1.76271V2H14.1017Z" fill="#064E00"/>
<path d="M14.1017 0H1.76271C0.784407 0 0 0.89 0 2V16C0 16.5304 0.185714 17.0391 0.516286 17.4142C0.846859 17.7893 1.29521 18 1.76271 18H14.1017C14.5692 18 15.0176 17.7893 15.3481 17.4142C15.6787 17.0391 15.8644 16.5304 15.8644 16V2C15.8644 1.46957 15.6787 0.960859 15.3481 0.585786C15.0176 0.210714 14.5692 0 14.1017 0ZM14.1017 2V16H1.76271V2H14.1017Z" fill="black" fill-opacity="0.2"/>
</svg>
