<svg width="42" height="42" viewBox="0 0 42 42" fill="none" xmlns="http://www.w3.org/2000/svg">
<path d="M21 30.625C23.1875 30.625 25.0472 29.8597 26.579 28.329C28.1097 26.7972 28.875 24.9375 28.875 22.75C28.875 20.5625 28.1097 18.7028 26.579 17.171C25.0472 15.6403 23.1875 14.875 21 14.875C18.8125 14.875 16.9528 15.6403 15.421 17.171C13.8903 18.7028 13.125 20.5625 13.125 22.75C13.125 24.9375 13.8903 26.7972 15.421 28.329C16.9528 29.8597 18.8125 30.625 21 30.625ZM7 36.75C6.0375 36.75 5.21383 36.4076 4.529 35.7227C3.843 35.0368 3.5 34.2125 3.5 33.25V12.25C3.5 11.2875 3.843 10.4638 4.529 9.779C5.21383 9.093 6.0375 8.75 7 8.75H12.5125L15.75 5.25H26.25L29.4875 8.75H35C35.9625 8.75 36.7868 9.093 37.4728 9.779C38.1576 10.4638 38.5 11.2875 38.5 12.25V33.25C38.5 34.2125 38.1576 35.0368 37.4728 35.7227C36.7868 36.4076 35.9625 36.75 35 36.75H7Z" fill="#064E00"/>
</svg>
